<svg version="1.1" id="Layer_1" xmlns="http://www.w3.org/2000/svg" xmlns:xlink="http://www.w3.org/1999/xlink" x="0px" y="0px"
	 width="100%" viewBox="0 0 1000 1000" enable-background="new 0 0 1000 1000" xml:space="preserve">
<path fill="#161616" opacity="1.000000" stroke="none" 
	d="
M561.000000,1001.000000 
	C374.000000,1001.000000 187.500000,1001.000000 1.000000,1001.000000 
	C1.000000,667.666687 1.000000,334.333344 1.000000,1.000000 
	C334.333344,1.000000 667.666687,1.000000 1001.000000,1.000000 
	C1001.000000,334.333344 1001.000000,667.666687 1001.000000,1001.000000 
	C854.500000,1001.000000 708.000000,1001.000000 561.000000,1001.000000 
M606.959778,565.295349 
	C611.491150,571.787659 617.450378,573.989197 625.179077,572.026184 
	C631.393188,570.447815 634.669312,566.199646 635.561707,558.400085 
	C635.769226,556.586670 635.754639,554.742004 635.755310,552.911682 
	C635.766235,523.590332 635.797119,494.268860 635.724304,464.947693 
	C635.714050,460.797638 635.539429,456.586426 634.824402,452.511688 
	C632.939514,441.770447 627.969177,433.127777 616.383972,430.889343 
	C598.480164,427.430115 589.738037,433.020905 583.436890,447.834290 
	C580.200073,437.997986 574.544006,431.066833 563.627930,430.059082 
	C551.397400,428.930023 541.982117,432.773315 537.129517,446.331573 
	C536.630127,444.014801 536.379883,443.111053 536.245422,442.190369 
	C534.955566,433.353760 529.217468,429.322083 518.901489,430.025787 
	C510.692291,430.585846 506.011475,435.624298 506.006287,444.095306 
	C505.983185,481.746613 505.962006,519.398010 506.021515,557.049194 
	C506.036621,566.625427 511.289673,572.141418 520.501709,572.688904 
	C529.292664,573.211365 535.076233,568.313477 536.411987,559.050964 
	C536.742798,556.757080 536.747070,554.403259 536.749023,552.076904 
	C536.770935,525.587708 536.726990,499.098419 536.814453,472.609528 
	C536.824219,469.665802 537.172119,466.615448 538.010010,463.807587 
	C539.245300,459.668030 542.379822,457.791016 546.775330,457.913269 
	C551.306946,458.039307 553.941589,460.519745 554.899292,464.634613 
	C555.608459,467.681244 555.942139,470.881409 555.950867,474.014557 
	C556.028442,501.836334 555.976196,529.658386 556.008911,557.480408 
	C556.018372,565.564575 559.400391,570.245483 566.280396,572.011047 
	C577.601746,574.916321 585.956482,568.738464 586.008972,557.056335 
	C586.134766,529.068420 586.029297,501.079498 586.127136,473.091370 
	C586.138062,469.969025 586.513733,466.754456 587.338013,463.752319 
	C588.348389,460.072571 590.958496,457.937592 595.056458,457.910645 
	C598.991882,457.884766 602.087280,459.392365 603.199951,463.173981 
	C604.215698,466.625916 604.902222,470.311646 604.920593,473.898499 
	C605.058899,500.886749 604.942139,527.876343 605.066650,554.864746 
	C605.081665,558.115479 606.062683,561.361694 606.959778,565.295349 
M366.215302,435.946259 
	C365.476196,439.479156 364.132385,443.006073 364.097565,446.545898 
	C363.894318,467.203003 363.996979,487.863068 363.998138,508.522156 
	C363.999054,524.849487 363.913025,541.177429 364.038116,557.503845 
	C364.114807,567.505371 369.851593,572.678772 380.422791,572.699890 
	C390.908173,572.720825 396.615448,567.524963 396.986633,557.584839 
	C397.067383,555.421509 397.069397,553.254395 397.070068,551.089050 
	C397.076019,531.429626 397.060944,511.770172 397.079651,492.110718 
	C397.087708,483.658936 399.468384,475.938660 405.155731,469.615601 
	C411.684967,462.356598 419.937408,459.488007 429.527649,461.954681 
	C438.404388,464.237854 442.144989,471.220459 443.924347,479.407867 
	C444.729584,483.113007 444.937378,487.005646 444.953217,490.815155 
	C445.045441,512.973328 444.932159,535.132324 445.031830,557.290405 
	C445.076721,567.273071 450.822266,572.566467 461.285583,572.699280 
	C471.871948,572.833618 477.878235,567.743896 477.932587,557.795227 
	C478.082733,530.307434 478.258789,502.813599 477.842468,475.330994 
	C477.539368,455.322357 465.161835,438.425995 446.665344,432.607758 
	C424.836609,425.741302 406.597321,430.833527 397.410248,452.530151 
	C397.255188,452.896332 396.887115,453.172272 396.138580,454.058441 
	C395.916809,444.584869 397.647980,434.580353 386.284119,431.050446 
	C379.202362,428.850677 372.079437,428.798645 366.215302,435.946259 
M331.202728,456.271271 
	C327.043457,441.540283 317.747528,431.891724 302.319427,430.509064 
	C294.068634,429.769653 285.349182,430.930908 277.228760,432.863068 
	C265.664215,435.614655 257.225372,443.284302 251.275482,453.821411 
	C250.876099,450.504364 251.052124,447.390350 250.837097,444.303619 
	C250.463547,438.941437 248.912003,434.122681 243.572510,431.542816 
	C230.477936,425.215942 218.340637,432.577881 218.315170,447.002136 
	C218.251343,483.156403 218.246689,519.310852 218.317474,555.465088 
	C218.343292,568.651672 225.674286,574.585388 238.743118,572.312256 
	C245.807556,571.083557 248.981186,568.169739 250.370438,561.196350 
	C250.853119,558.773560 250.906494,556.236816 250.910950,553.751648 
	C250.949982,531.925842 251.113373,510.097778 250.852417,488.274994 
	C250.734558,478.420013 255.045074,471.363770 262.883514,466.142609 
	C270.175995,461.285126 278.322418,459.303833 287.067413,459.838501 
	C293.382416,460.224579 297.583588,463.030548 299.112152,469.170593 
	C300.342712,474.113556 300.658539,479.331085 300.948181,484.451263 
	C301.488281,493.998596 306.710358,498.916718 316.869141,499.006256 
	C328.150879,499.105682 334.008484,494.646790 333.843445,484.787445 
	C333.688354,475.524902 332.323456,466.282593 331.202728,456.271271 
M700.933716,519.500000 
	C700.933777,509.007172 701.139954,498.509125 700.872437,488.023102 
	C700.631897,478.591858 704.851501,471.729706 712.260193,466.568176 
	C719.298584,461.664764 727.226013,459.530365 735.804565,459.780945 
	C744.038208,460.021454 748.841431,464.060699 750.025696,472.243134 
	C750.643433,476.511383 750.750122,480.856903 751.016846,485.171936 
	C751.587158,494.398041 757.088379,499.011200 767.584351,499.006470 
	C778.159058,499.001709 783.785767,494.467133 783.887878,485.076660 
	C783.967163,477.778381 783.781250,470.389648 782.735413,463.183014 
	C779.502563,440.907959 766.328552,429.732941 743.986450,430.028900 
	C725.651733,430.271790 710.862976,437.191528 700.882507,455.175842 
	C700.882507,450.591705 701.043945,447.511597 700.845825,444.454834 
	C700.524170,439.491089 699.259827,434.888123 694.587097,432.096527 
	C682.356018,424.789398 668.532837,432.242706 668.320984,446.333466 
	C668.185791,455.325317 668.292847,464.320831 668.292725,473.314697 
	C668.292297,500.629425 668.259460,527.944214 668.318726,555.258789 
	C668.331665,561.220398 669.096375,567.086609 674.932312,570.489441 
	C687.489929,577.811584 700.733337,570.415100 700.891785,555.975342 
	C701.021484,544.151550 700.928162,532.325195 700.933716,519.500000 
z"/>
<path fill="#EDEDED" opacity="1.000000" stroke="none" 
	d="
M606.777832,564.952698 
	C606.062683,561.361694 605.081665,558.115479 605.066650,554.864746 
	C604.942139,527.876343 605.058899,500.886749 604.920593,473.898499 
	C604.902222,470.311646 604.215698,466.625916 603.199951,463.173981 
	C602.087280,459.392365 598.991882,457.884766 595.056458,457.910645 
	C590.958496,457.937592 588.348389,460.072571 587.338013,463.752319 
	C586.513733,466.754456 586.138062,469.969025 586.127136,473.091370 
	C586.029297,501.079498 586.134766,529.068420 586.008972,557.056335 
	C585.956482,568.738464 577.601746,574.916321 566.280396,572.011047 
	C559.400391,570.245483 556.018372,565.564575 556.008911,557.480408 
	C555.976196,529.658386 556.028442,501.836334 555.950867,474.014557 
	C555.942139,470.881409 555.608459,467.681244 554.899292,464.634613 
	C553.941589,460.519745 551.306946,458.039307 546.775330,457.913269 
	C542.379822,457.791016 539.245300,459.668030 538.010010,463.807587 
	C537.172119,466.615448 536.824219,469.665802 536.814453,472.609528 
	C536.726990,499.098419 536.770935,525.587708 536.749023,552.076904 
	C536.747070,554.403259 536.742798,556.757080 536.411987,559.050964 
	C535.076233,568.313477 529.292664,573.211365 520.501709,572.688904 
	C511.289673,572.141418 506.036621,566.625427 506.021515,557.049194 
	C505.962006,519.398010 505.983185,481.746613 506.006287,444.095306 
	C506.011475,435.624298 510.692291,430.585846 518.901489,430.025787 
	C529.217468,429.322083 534.955566,433.353760 536.245422,442.190369 
	C536.379883,443.111053 536.630127,444.014801 537.129517,446.331573 
	C541.982117,432.773315 551.397400,428.930023 563.627930,430.059082 
	C574.544006,431.066833 580.200073,437.997986 583.436890,447.834290 
	C589.738037,433.020905 598.480164,427.430115 616.383972,430.889343 
	C627.969177,433.127777 632.939514,441.770447 634.824402,452.511688 
	C635.539429,456.586426 635.714050,460.797638 635.724304,464.947693 
	C635.797119,494.268860 635.766235,523.590332 635.755310,552.911682 
	C635.754639,554.742004 635.769226,556.586670 635.561707,558.400085 
	C634.669312,566.199646 631.393188,570.447815 625.179077,572.026184 
	C617.450378,573.989197 611.491150,571.787659 606.777832,564.952698 
z"/>
<path fill="#EEEEEE" opacity="1.000000" stroke="none" 
	d="
M366.433960,435.635376 
	C372.079437,428.798645 379.202362,428.850677 386.284119,431.050446 
	C397.647980,434.580353 395.916809,444.584869 396.138580,454.058441 
	C396.887115,453.172272 397.255188,452.896332 397.410248,452.530151 
	C406.597321,430.833527 424.836609,425.741302 446.665344,432.607758 
	C465.161835,438.425995 477.539368,455.322357 477.842468,475.330994 
	C478.258789,502.813599 478.082733,530.307434 477.932587,557.795227 
	C477.878235,567.743896 471.871948,572.833618 461.285583,572.699280 
	C450.822266,572.566467 445.076721,567.273071 445.031830,557.290405 
	C444.932159,535.132324 445.045441,512.973328 444.953217,490.815155 
	C444.937378,487.005646 444.729584,483.113007 443.924347,479.407867 
	C442.144989,471.220459 438.404388,464.237854 429.527649,461.954681 
	C419.937408,459.488007 411.684967,462.356598 405.155731,469.615601 
	C399.468384,475.938660 397.087708,483.658936 397.079651,492.110718 
	C397.060944,511.770172 397.076019,531.429626 397.070068,551.089050 
	C397.069397,553.254395 397.067383,555.421509 396.986633,557.584839 
	C396.615448,567.524963 390.908173,572.720825 380.422791,572.699890 
	C369.851593,572.678772 364.114807,567.505371 364.038116,557.503845 
	C363.913025,541.177429 363.999054,524.849487 363.998138,508.522156 
	C363.996979,487.863068 363.894318,467.203003 364.097565,446.545898 
	C364.132385,443.006073 365.476196,439.479156 366.433960,435.635376 
z"/>
<path fill="#ECECEC" opacity="1.000000" stroke="none" 
	d="
M331.346802,456.651337 
	C332.323456,466.282593 333.688354,475.524902 333.843445,484.787445 
	C334.008484,494.646790 328.150879,499.105682 316.869141,499.006256 
	C306.710358,498.916718 301.488281,493.998596 300.948181,484.451263 
	C300.658539,479.331085 300.342712,474.113556 299.112152,469.170593 
	C297.583588,463.030548 293.382416,460.224579 287.067413,459.838501 
	C278.322418,459.303833 270.175995,461.285126 262.883514,466.142609 
	C255.045074,471.363770 250.734558,478.420013 250.852417,488.274994 
	C251.113373,510.097778 250.949982,531.925842 250.910950,553.751648 
	C250.906494,556.236816 250.853119,558.773560 250.370438,561.196350 
	C248.981186,568.169739 245.807556,571.083557 238.743118,572.312256 
	C225.674286,574.585388 218.343292,568.651672 218.317474,555.465088 
	C218.246689,519.310852 218.251343,483.156403 218.315170,447.002136 
	C218.340637,432.577881 230.477936,425.215942 243.572510,431.542816 
	C248.912003,434.122681 250.463547,438.941437 250.837097,444.303619 
	C251.052124,447.390350 250.876099,450.504364 251.275482,453.821411 
	C257.225372,443.284302 265.664215,435.614655 277.228760,432.863068 
	C285.349182,430.930908 294.068634,429.769653 302.319427,430.509064 
	C317.747528,431.891724 327.043457,441.540283 331.346802,456.651337 
z"/>
<path fill="#ECECEC" opacity="1.000000" stroke="none" 
	d="
M700.933716,520.000000 
	C700.928162,532.325195 701.021484,544.151550 700.891785,555.975342 
	C700.733337,570.415100 687.489929,577.811584 674.932312,570.489441 
	C669.096375,567.086609 668.331665,561.220398 668.318726,555.258789 
	C668.259460,527.944214 668.292297,500.629425 668.292725,473.314697 
	C668.292847,464.320831 668.185791,455.325317 668.320984,446.333466 
	C668.532837,432.242706 682.356018,424.789398 694.587097,432.096527 
	C699.259827,434.888123 700.524170,439.491089 700.845825,444.454834 
	C701.043945,447.511597 700.882507,450.591705 700.882507,455.175842 
	C710.862976,437.191528 725.651733,430.271790 743.986450,430.028900 
	C766.328552,429.732941 779.502563,440.907959 782.735413,463.183014 
	C783.781250,470.389648 783.967163,477.778381 783.887878,485.076660 
	C783.785767,494.467133 778.159058,499.001709 767.584351,499.006470 
	C757.088379,499.011200 751.587158,494.398041 751.016846,485.171936 
	C750.750122,480.856903 750.643433,476.511383 750.025696,472.243134 
	C748.841431,464.060699 744.038208,460.021454 735.804565,459.780945 
	C727.226013,459.530365 719.298584,461.664764 712.260193,466.568176 
	C704.851501,471.729706 700.631897,478.591858 700.872437,488.023102 
	C701.139954,498.509125 700.933777,509.007172 700.933716,520.000000 
z"/>
</svg>